<?xml version="1.0" encoding="UTF-8"?>
<svg width="10px" height="15px" viewBox="0 0 10 15" version="1.1" xmlns="http://www.w3.org/2000/svg" xmlns:xlink="http://www.w3.org/1999/xlink">
    <!-- Generator: Sketch 43.1 (39012) - http://www.bohemiancoding.com/sketch -->
    <title>Shape</title>
    <desc>Created with Sketch.</desc>
    <defs></defs>
    <g id="Page-1" stroke="none" stroke-width="1" fill="none" fill-rule="evenodd">
        <g id="Optzavr-–-Home" transform="translate(-79.000000, -194.000000)" fill-rule="nonzero" fill="#FD527B">
            <g id="Group-25" transform="translate(64.000000, 182.000000)">
                <path d="M22.6130399,18.2845581 C21.184929,16.4272405 19.3632175,14.7716372 19.4993585,12 C18.381069,13.2980922 17.9571792,14.6185793 18.2423502,16.1496418 C18.3955693,16.9721267 18.5773054,17.7968672 18.3390184,18.6349801 C18.263295,18.9008176 18.2191499,19.2293282 17.8598666,19.2278782 C17.4997777,19.2257837 17.4617549,18.8866396 17.3823259,18.6285356 C17.1624058,17.9154468 17.3090192,17.1735187 17.2436071,16.233582 C15.9052364,18.1745175 15.0774347,20.0817802 15.0033225,22.2506915 C14.9477383,23.8826111 15.5873593,25.1800589 17.0897436,25.929076 C18.4730649,26.6192867 19.9258262,26.6666541 21.3781042,26.1631741 C23.3243564,25.4884303 24.2609098,24.1072035 24.222887,22.059933 C24.1946921,20.5825213 23.476931,19.4075198 22.6130399,18.2845581 Z" id="Shape"></path>
            </g>
        </g>
    </g>
</svg>