<?xml version="1.0" encoding="UTF-8"?>
<svg width="14px" height="14px" viewBox="0 0 14 14" version="1.1" xmlns="http://www.w3.org/2000/svg" xmlns:xlink="http://www.w3.org/1999/xlink">
    <!-- Generator: Sketch 43.1 (39012) - http://www.bohemiancoding.com/sketch -->
    <title>Shape</title>
    <desc>Created with Sketch.</desc>
    <defs></defs>
    <g id="Page-1" stroke="none" stroke-width="1" fill="none" fill-rule="evenodd">
        <g id="Optzavr-–-Home" transform="translate(-794.000000, -18.000000)" fill-rule="nonzero" fill="#21252B">
            <g id="header">
                <path d="M799.669291,18 C796.551181,18 794,20.5452755 794,23.6633857 C794,26.7814958 796.551181,29.332677 799.669291,29.332677 C800.86811,29.332677 801.978346,28.9488187 802.893701,28.3110235 L805.958661,31.3700785 C806.348425,31.7657478 806.98622,31.7657478 807.375984,31.3700785 C807.765748,30.9803147 807.765748,30.348425 807.375984,29.9586612 L804.311023,26.8937007 C804.954724,25.9724408 805.332677,24.8622047 805.332677,23.6633857 C805.332677,20.5452755 802.781496,18 799.669291,18 L799.669291,18 Z M799.669291,19.996063 C801.700787,19.996063 803.330708,21.6259842 803.330708,23.6633857 C803.330708,25.7007873 801.700787,27.3307085 799.669291,27.3307085 C797.63189,27.3307085 796.001968,25.7007873 796.001968,23.6633857 C796.001968,21.6259842 797.63189,19.996063 799.669291,19.996063 L799.669291,19.996063 Z" id="Shape"></path>
            </g>
        </g>
    </g>
</svg>