<?xml version="1.0" encoding="UTF-8"?>
<svg width="12px" height="15px" viewBox="0 0 12 15" version="1.1" xmlns="http://www.w3.org/2000/svg" xmlns:xlink="http://www.w3.org/1999/xlink">
    <!-- Generator: Sketch 43.1 (39012) - http://www.bohemiancoding.com/sketch -->
    <title>Shape</title>
    <desc>Created with Sketch.</desc>
    <defs></defs>
    <g id="Page-1" stroke="none" stroke-width="1" fill="none" fill-rule="evenodd">
        <g id="Optzavr-–-Home" transform="translate(-1296.000000, -18.000000)" fill-rule="nonzero" fill="#FD527B">
            <g id="header">
                <g id="noun_980069_cc" transform="translate(1296.000000, 18.000000)">
                    <g id="Group">
                        <path d="M3.00106008,3.12194757 L3.00106008,4.29268181 L1.50158993,4.29268181 C1.20037078,4.29279889 0.965833253,4.59018391 0.939288886,4.82315924 L0.00212016111,14.3597382 C-0.0271776076,14.6839719 0.251588853,15.0013959 0.564421396,14.9999911 L11.4355786,14.9999911 C11.7484111,15.0019423 12.0271776,14.6839719 11.9978798,14.3597382 L11.0607111,4.82315924 C11.0346597,4.53541324 10.7760499,4.29143304 10.4984099,4.29268181 L8.99893992,4.29268181 L8.99893992,3.12194757 C8.99893992,1.40251348 7.65168678,0 6,0 C4.34831322,2.21827717e-14 3.00106008,1.40251348 3.00106008,3.12194757 Z M6,1.58536517 C6.76970453,1.58536517 7.37646578,2.21701398 7.37646578,3.01828951 L7.37646578,3.87804698 L4.62353422,3.87804698 L4.62353422,3.01828951 C4.62353422,2.21701398 5.23029547,1.58536517 6,1.58536517 Z" id="Shape"></path>
                    </g>
                </g>
            </g>
        </g>
    </g>
</svg>